<svg xmlns="http://www.w3.org/2000/svg" width="155.944" height="62.031" viewBox="0 0 155.944 62.031">
  <g id="Group_261" data-name="Group 261" style="isolation: isolate">
    <g id="Group_213" data-name="Group 213">
      <path id="Path_255" data-name="Path 255" d="M942.85,194.3l-11.07,6.391,11.07,6.391Z" transform="translate(-927.352 -145.055)" fill="#001932"/>
      <path id="Path_256" data-name="Path 256" d="M921.95,131.6l33.21-20.415V124.8l-33.21,20.415Zm0-5.444,33.21-20.414-.079-13.615-33.131,20.42Z" transform="translate(-921.95 -92.131)" fill="#001932"/>
    </g>
    <g id="Group_214" data-name="Group 214" transform="translate(53.553 21.526)">
      <path id="Path_257" data-name="Path 257" d="M1043.569,138.9v5.625h10.842v2.561h-10.842v8.233h-2.728v-18.98h17.615V138.9Z" transform="translate(-1040.841 -136.338)" fill="#001932"/>
      <path id="Path_258" data-name="Path 258" d="M1106.315,145.936l.072,9.382H1103.9l-.1-9.382-10.746-9.6h3.71l8.352,7.324,8.4-7.324h3.734Z" transform="translate(-1069.536 -136.338)" fill="#001932"/>
      <path id="Path_259" data-name="Path 259" d="M1164.948,138.9v5.625h10.842v2.561h-10.842v8.233h-2.728v-18.98h17.615V138.9Z" transform="translate(-1107.546 -136.338)" fill="#001932"/>
      <path id="Path_260" data-name="Path 260" d="M1227.695,145.936l.072,9.382h-2.49l-.1-9.382-10.746-9.6h3.71l8.353,7.324,8.4-7.324h3.734Z" transform="translate(-1136.241 -136.338)" fill="#001932"/>
    </g>
  </g>
</svg>
