<svg xmlns="http://www.w3.org/2000/svg" width="138.267" height="55" viewBox="0 0 138.267 55">
  <g id="Group_215" data-name="Group 215" style="isolation: isolate">
    <g id="Group_213" data-name="Group 213">
      <path id="Path_255" data-name="Path 255" d="M941.6,194.3l-9.815,5.667,9.815,5.667Z" transform="translate(-927.854 -150.637)" fill="#fff"/>
      <path id="Path_256" data-name="Path 256" d="M921.95,127.13l29.446-18.1V121.1L921.95,139.2Zm0-4.827L951.4,104.2l-.07-12.072L921.95,110.236Z" transform="translate(-921.95 -92.131)" fill="#fff"/>
    </g>
    <g id="Group_214" data-name="Group 214" transform="translate(47.483 19.086)">
      <path id="Path_257" data-name="Path 257" d="M1043.26,138.609V143.6h9.613v2.271h-9.613v7.3h-2.419V136.338h15.619v2.271Z" transform="translate(-1040.841 -136.338)" fill="#fff"/>
      <path id="Path_258" data-name="Path 258" d="M1104.812,144.848l.064,8.318h-2.207l-.085-8.318-9.528-8.51h3.289l7.406,6.494,7.449-6.494h3.311Z" transform="translate(-1072.202 -136.338)" fill="#fff"/>
      <path id="Path_259" data-name="Path 259" d="M1164.639,138.609V143.6h9.613v2.271h-9.613v7.3h-2.419V136.338h15.618v2.271Z" transform="translate(-1113.743 -136.338)" fill="#fff"/>
      <path id="Path_260" data-name="Path 260" d="M1226.192,144.848l.063,8.318h-2.207l-.085-8.318-9.528-8.51h3.289l7.406,6.494,7.448-6.494h3.311Z" transform="translate(-1145.105 -136.338)" fill="#fff"/>
    </g>
  </g>
</svg>
